# xmcd
#
# Track frame offsets:
#	150
#	39220
#	64440
#	96902
#	128985
#	161325
#	188457
#	209465
#	240480
#	273147
#
# Disc length: 3950 seconds
#
# Revision: 0
# Processed by: cddbd v1.5.2PL0 Copyright (c) Steve Scherf et al.
# Submitted via: dBpowerAMP V4.0
#
DISCID=810f6c0a
DTITLE=MAZE Featuring FRANKIE BEVERLEY - Greatest Hits of Maze featu
DYEAR=1989
DGENRE=R&B
TTITLE0=Joy And Pain (Featuring Kurtis Blow)
TTITLE1=Golden Time Of Day
TTITLE2=Happy Feelin's
TTITLE3=Back In Stride
TTITLE4=Before I Let Go (Featuring Woody Wood)
TTITLE5=Running Away
TTITLE6=While I'm Alone
TTITLE7=Southern Girl
TTITLE8=Joy and Pain (Original LP Version)
TTITLE9=MAZE Featuring FRANKIE BEVERLEY - Before I Let Go (Original LP Versionl)
EXTD=
EXTT0=
EXTT1=
EXTT2=
EXTT3=
EXTT4=
EXTT5=
EXTT6=
EXTT7=
EXTT8=
EXTT9=
PLAYORDER=
